<svg width="250" height="24" viewBox="0 0 250 24" fill="none" xmlns="http://www.w3.org/2000/svg">
<path d="M25.1356 18.7907V23.9668H11.399C3.60173 23.9668 0.880971 19.7861 0.880971 13.9465V10.7944C0.880971 4.98786 3.60173 0.773998 11.399 0.773998H25.1356V5.98326H11.399C8.24693 5.98326 7.35107 7.80816 7.35107 10.1639V14.5769C7.35107 16.9658 8.24693 18.7907 11.399 18.7907H25.1356ZM27.5454 13.9465V10.7944C27.5454 4.98786 30.2661 0.773998 38.0634 0.773998H45.3962C53.1603 0.773998 55.9143 4.98786 55.9143 10.7944V13.9465C55.9143 19.7861 53.1603 23.9668 45.3962 23.9668H38.0634C30.2661 23.9668 27.5454 19.7861 27.5454 13.9465ZM38.0634 18.7907H45.3962C48.5483 18.7907 49.4442 16.9658 49.4442 14.5769V10.1639C49.4442 7.80816 48.5483 5.98326 45.3962 5.98326H38.0634C34.9113 5.98326 34.0155 7.80816 34.0155 10.1639V14.5769C34.0155 16.9658 34.9113 18.7907 38.0634 18.7907ZM83.5956 23.9668H59.3078V0.773998H65.7779V18.7907H83.5956V23.9668ZM107.609 14.8755H91.8157C91.8821 17.1649 92.8775 18.7907 95.8637 18.7907H109.6V23.9668H95.8637C88.0664 23.9668 85.3456 19.7861 85.3456 13.9465V10.7944C85.3456 4.98786 88.0664 0.773998 95.8637 0.773998H109.6V5.98326H95.8637C92.977 5.98326 91.9485 7.47636 91.8157 9.69942H107.609V14.8755ZM136.265 18.7907V23.9668H122.528C114.731 23.9668 112.01 19.7861 112.01 13.9465V10.7944C112.01 4.98786 114.731 0.773998 122.528 0.773998H136.265V5.98326H122.528C119.376 5.98326 118.48 7.80816 118.48 10.1639V14.5769C118.48 16.9658 119.376 18.7907 122.528 18.7907H136.265ZM162.929 18.7907V23.9668H149.192C141.395 23.9668 138.674 19.7861 138.674 13.9465V10.7944C138.674 4.98786 141.395 0.773998 149.192 0.773998H162.929V5.98326H149.192C146.04 5.98326 145.145 7.80816 145.145 10.1639V14.5769C145.145 16.9658 146.04 18.7907 149.192 18.7907H162.929ZM191.096 23.9668H166.808V0.773998H173.278V18.7907H191.096V23.9668ZM204.476 18.7907H212.771V0.773998H219.241V23.9668H205.14C203.647 23.9668 202.087 23.9668 200.627 23.635C195.186 22.4074 193.958 17.9944 193.958 13.9465V0.773998H200.428V13.9465C200.428 16.2691 201.291 18.7907 204.476 18.7907ZM240.935 23.9668H223.118V0.773998H239.641C244.552 0.773998 247.87 3.82656 247.87 7.84134C247.87 9.13536 247.505 10.4294 246.742 11.5575C248.401 12.9511 249.164 14.8755 249.164 16.7999C249.164 20.8147 245.945 23.9668 240.935 23.9668ZM229.588 5.98326V18.7907H240.935C242.097 18.7907 242.627 17.729 242.627 16.7999C242.627 15.8709 242.097 14.8755 240.935 14.8755H230.583V9.69942H239.641C240.803 9.69942 241.333 8.7372 241.333 7.84134C241.333 6.9123 240.803 5.98326 239.641 5.98326H229.588Z" fill="url(#paint0_linear_16_61)"/>
<defs>
<linearGradient id="paint0_linear_16_61" x1="201.132" y1="10.3201" x2="9.10461" y2="-47.0814" gradientUnits="userSpaceOnUse">
<stop stop-color="#2D6AE2"/>
<stop offset="1" stop-color="#00AEFF"/>
</linearGradient>
</defs>
</svg>
